<?xml version="1.0" standalone="no"?>
<!DOCTYPE svg PUBLIC "-//W3C//DTD SVG 20010904//EN"
 "http://www.w3.org/TR/2001/REC-SVG-20010904/DTD/svg10.dtd">
<svg version="1.0" xmlns="http://www.w3.org/2000/svg"
 width="142.000000pt" height="142.000000pt" viewBox="0 0 142.000000 142.000000"
 preserveAspectRatio="xMidYMid meet">
<metadata>
Created by potrace 1.14, written by Peter Selinger 2001-2017
</metadata>
<g transform="translate(0.000000,142.000000) scale(0.100000,-0.100000)"
fill="#000000" stroke="none">
<path d="M990 1240 c-11 -11 -21 -30 -21 -42 -1 -13 -3 -32 -4 -43 -3 -20 -10
-106 -20 -260 -3 -44 -7 -89 -10 -100 -2 -11 -4 -24 -4 -29 -1 -7 -101 -2
-181 9 -14 2 -50 6 -80 9 -154 14 -182 19 -199 34 -22 20 -48 148 -57 287 -3
50 -12 100 -19 111 -18 27 -70 36 -112 18 -34 -13 -38 -27 -34 -104 1 -14 3
-124 5 -245 4 -219 4 -221 30 -259 14 -21 27 -49 27 -62 1 -13 2 -27 3 -31 1
-5 5 -30 10 -58 20 -132 67 -269 97 -285 29 -16 74 -11 97 10 28 27 28 58 -2
217 -14 71 -27 144 -29 164 -5 41 -24 38 143 25 183 -16 295 -28 301 -34 4 -4
10 -50 13 -102 13 -185 37 -274 79 -289 34 -13 70 -3 96 26 21 24 23 33 17 92
-17 181 -20 226 -19 351 1 74 3 221 6 325 2 105 0 204 -4 220 -17 61 -88 86
-129 45z"/>
</g>
</svg>
